<svg width="110" height="70" viewBox="0 0 110 70" fill="none" xmlns="http://www.w3.org/2000/svg">
<mask id="mask0_119_2201" style="mask-type:luminance" maskUnits="userSpaceOnUse" x="6" y="0" width="98" height="49">
<path d="M6.86914 0H103.359V48.7083H6.86914V0Z" fill="white"/>
</mask>
<g mask="url(#mask0_119_2201)">
<path d="M79.6671 3.86708C69.2853 3.86708 60.4599 10.3852 57.364 19.3889C59.2682 8.75464 68.9205 0.638637 80.5047 0.638637C83.2931 0.638637 85.9691 1.11209 88.4564 1.97328C85.3732 0.677411 81.972 -0.0429688 78.3927 -0.0429688C68.1084 -0.0429688 59.2661 5.89761 55.3623 14.4075C55.2393 14.7585 55.1269 15.1156 55.0188 15.4789C54.9106 15.1156 54.7961 14.7585 54.6731 14.4075C50.7736 5.89761 41.9313 -0.0429688 31.6449 -0.0429688C28.0655 -0.0429688 24.6643 0.677411 21.5811 1.97532C24.0642 1.11209 26.7424 0.640678 29.5329 0.640678C41.117 0.640678 50.7672 8.75669 52.6714 19.3889C49.5777 10.3852 40.7502 3.86708 30.3705 3.86708C17.4229 3.86708 6.88843 14.0055 6.88843 26.4662C6.88843 26.4784 6.88843 26.4866 6.88843 26.4988C6.89267 28.5008 7.26375 30.4905 7.96775 32.3782C11.4602 41.7125 20.7436 48.3857 31.6449 48.3857C36.9482 48.3857 41.8698 46.8062 45.9262 44.1084C43.7527 45.3491 41.3396 46.2736 38.7315 46.796C27.3912 49.0673 16.2227 43.0166 12.1048 32.9802C17.0412 41.1881 27.0647 45.8348 37.2281 43.7982C46.0534 42.0288 52.6905 35.6781 55.0188 27.8641C57.3449 35.6781 63.982 42.0288 72.8095 43.7982C82.9729 45.8369 92.9942 41.1901 97.9306 32.9802C93.8127 43.0166 82.6442 49.0673 71.3039 46.794C68.6979 46.2715 66.2806 45.3471 64.1092 44.1063C68.1657 46.8042 73.0873 48.3837 78.3905 48.3837C89.2919 48.3837 98.5753 41.7105 102.068 32.3762C102.772 30.4905 103.143 28.5008 103.147 26.4968C103.147 26.4846 103.147 26.4764 103.147 26.4642C103.149 14.0055 92.6146 3.86708 79.6671 3.86708ZM78.1064 9.64441C86.6688 9.49339 93.6431 16.2033 93.4861 24.4479C93.3356 32.2149 86.7494 38.5535 78.6789 38.6984C70.1165 38.8494 63.1402 32.1394 63.2992 23.8949C63.4497 16.1258 70.0338 9.7893 78.1064 9.64441ZM46.7383 23.8949C46.8953 32.1374 39.9232 38.8494 31.3565 38.6984C23.286 38.5535 16.6998 32.2149 16.5514 24.4479C16.3924 16.2054 23.3666 9.49339 31.9311 9.64441C40.0016 9.7893 46.5878 16.1258 46.7383 23.8949Z" fill="#B5CCF5"/>
</g>
<path d="M70.7268 17.4216C73.5259 16.1645 76.9589 16.6481 79.2702 18.8726C82.2219 21.7133 82.2219 26.3212 79.2702 29.1619C76.3185 32.0006 71.5305 32.0006 68.5788 29.1619C66.2696 26.9375 65.7671 23.6336 67.0712 20.9398C67.209 21.352 67.4422 21.7398 67.7836 22.0663C68.9202 23.1601 70.7629 23.1601 71.8973 22.0663C73.0339 20.9725 73.0339 19.2011 71.8973 18.1073C71.5602 17.7787 71.1552 17.5522 70.7268 17.4216ZM33.6145 18.2052C34.751 19.2991 34.751 21.0725 33.6145 22.1643C32.48 23.2581 30.6373 23.2581 29.5007 22.1643C29.1615 21.8377 28.9261 21.45 28.7883 21.0378C27.4842 23.7315 27.9867 27.0355 30.2959 29.2599C33.2476 32.0986 38.0356 32.0986 40.9873 29.2599C43.939 26.4192 43.939 21.8112 40.9873 18.9705C38.676 16.7461 35.243 16.2624 32.444 17.5195C32.8723 17.6522 33.2773 17.8787 33.6145 18.2052Z" fill="#B5CCF5"/>
<path d="M8.65574 66.7904H11.8195L8.34191 56.7173H3.47756L0 66.7904H3.16374L3.76171 65.0639H8.05777L8.65574 66.7904ZM4.5484 62.7905L5.90126 58.8519L7.27108 62.7905H4.5484Z" fill="#B5CCF5"/>
<path d="M12.9087 66.7902H15.994V56.1865H12.9087V66.7902Z" fill="#B5CCF5"/>
<path d="M23.3318 59.2311V60.0637C22.7975 59.3821 21.9472 58.9883 20.6876 58.9883C18.0752 58.9883 17.051 60.7903 17.051 62.7902C17.051 64.7146 18.0752 66.5615 20.6876 66.5615C21.9472 66.5615 22.7975 66.1533 23.3318 65.4717V66.79C23.3318 67.6226 22.8441 68.0002 21.82 68.0002C20.783 68.0002 20.3568 67.592 20.2635 67.0471H17.2716C17.367 68.6226 18.6414 70.0001 21.6312 70.0001C25.0791 70.0001 26.4171 68.8042 26.4171 66.2288V59.2311H23.3318ZM21.7903 64.4105C20.5774 64.4105 20.1363 63.9575 20.1363 62.8514C20.1363 61.7453 20.5774 61.2902 21.7903 61.2902C23.018 61.2902 23.3318 61.8514 23.3318 62.8514C23.3318 63.8514 23.018 64.4105 21.7903 64.4105Z" fill="#B5CCF5"/>
<path d="M32.2054 67.0471C35.8001 67.0471 36.9345 64.986 36.9345 63.0167C36.9345 61.0474 35.8001 58.9883 32.2054 58.9883C28.6107 58.9883 27.4763 61.0474 27.4763 63.0167C27.4763 65.0023 28.6107 67.0471 32.2054 67.0471ZM30.6082 63.0167C30.6082 61.6698 31.0387 61.2902 32.2054 61.2902C33.3721 61.2902 33.8026 61.6698 33.8026 63.0167C33.8026 64.3656 33.3721 64.7452 32.2054 64.7452C31.0387 64.7452 30.6082 64.3656 30.6082 63.0167Z" fill="#B5CCF5"/>
<path d="M37.9673 66.7902H41.0526V56.1865H37.9673V66.7902Z" fill="#B5CCF5"/>
<path d="M42.1536 66.7902H45.2388V56.1865H42.1536V66.7902Z" fill="#B5CCF5"/>
<path d="M52.1012 59.2173V62.8967C52.1012 64.0783 51.5498 64.6395 50.6211 64.6395C49.6923 64.6395 49.3785 64.0477 49.3785 63.2314V59.2173H46.2932V63.7763C46.2932 65.7599 47.2686 67.0333 49.3149 67.0333C50.6677 67.0333 51.5817 66.4578 52.1012 65.5028V66.7905H55.1864V59.2173H52.1012Z" fill="#B5CCF5"/>
<path d="M67.3679 58.9741C65.9663 58.9741 65.116 59.5945 64.6134 60.5802C64.1872 59.5639 63.3072 58.9741 61.9989 58.9741C60.6927 58.9741 59.8594 59.5047 59.3717 60.3822V59.217H56.2864V66.7901H59.3717V63.1087C59.3717 61.9271 59.7639 61.3679 60.6927 61.3679C61.543 61.3679 61.859 61.8965 61.859 62.7148V66.7901H64.8955V63.1087C64.8955 61.9271 65.2899 61.3679 66.2186 61.3679C67.0689 61.3679 67.3828 61.8965 67.3828 62.7148V66.7901H70.4681V62.2311C70.4681 60.2455 69.4926 58.9741 67.3679 58.9741Z" fill="#B5CCF5"/>
<path d="M71.5208 58.3682H74.606V56.7173H71.5208V58.3682ZM71.5208 66.7904H74.606V59.2172H71.5208V66.7904Z" fill="#B5CCF5"/>
<path d="M81.6104 58.9741C80.2406 58.9741 79.3267 59.5639 78.7923 60.519V59.217H75.707V66.7901H78.7923V63.1087C78.7923 61.9271 79.3436 61.3679 80.2724 61.3679C81.2012 61.3679 81.515 61.9577 81.515 62.776V66.7901H84.6003V62.2311C84.6003 60.2455 83.6545 58.9741 81.6104 58.9741Z" fill="#B5CCF5"/>
<path d="M88.0624 66.9861C89.6209 66.9861 90.643 66.4106 91.0522 65.2596C91.0522 65.8963 91.1158 66.3963 91.1943 66.7901H93.8216C93.7283 66.2004 93.6646 65.4575 93.6646 64.578V61.8067C93.6646 59.9741 92.3902 58.9741 89.7927 58.9741C87.2269 58.9741 85.7002 60.17 85.6069 61.7924H88.5819C88.5819 61.2148 88.9742 60.8985 89.8096 60.8985C90.5645 60.8985 90.8169 61.1087 90.8169 61.4883C90.8169 61.8373 90.6748 62.0026 89.9665 62.125L88.2341 62.4128C85.9377 62.7903 85.45 63.5943 85.45 64.8065C85.45 66.1228 86.5038 66.9861 88.0624 66.9861ZM89.3219 65.1086C88.8639 65.1086 88.4716 64.8821 88.4716 64.4127C88.4716 63.9576 88.707 63.7454 89.4004 63.5637L89.6358 63.5025C90.1383 63.3821 90.4394 63.3066 90.8169 63.0495V63.276C90.8169 64.578 90.1235 65.1086 89.3219 65.1086Z" fill="#B5CCF5"/>
<path d="M98.9518 66.7901H100.353V64.4412H98.621V61.4434H100.635V59.2169H98.621V57.3374H97.0476L95.7732 59.3516L94.1829 60.0802V61.4434H95.5357V63.5637C95.5357 65.6534 96.386 66.7901 98.9518 66.7901Z" fill="#B5CCF5"/>
<path d="M105.689 65.078C104.822 65.078 104.319 64.7147 104.162 63.7454H109.953C109.985 63.5943 110 63.3515 110 63.0944C110 61.0047 109.071 58.9741 105.625 58.9741C102.494 58.9741 101.156 60.8067 101.156 62.9882C101.156 65.0188 102.288 67.033 105.625 67.033C108.522 67.033 109.671 65.8963 109.97 64.5025H106.947C106.726 64.8514 106.287 65.078 105.689 65.078ZM105.672 60.8822C106.601 60.8822 106.995 61.321 107.089 62.1087H104.177C104.351 61.2006 104.807 60.8822 105.672 60.8822Z" fill="#B5CCF5"/>
</svg>
