<svg width="110" height="70" viewBox="0 0 110 70" fill="none" xmlns="http://www.w3.org/2000/svg">
<mask id="mask0_201_123" style="mask-type:luminance" maskUnits="userSpaceOnUse" x="6" y="0" width="98" height="49">
<path d="M6.86914 0H103.359V48.7083H6.86914V0Z" fill="white"/>
</mask>
<g mask="url(#mask0_201_123)">
<path d="M79.6671 3.8672C69.2853 3.8672 60.4599 10.3853 57.364 19.389C59.2682 8.75477 68.9205 0.638759 80.5047 0.638759C83.2931 0.638759 85.9691 1.11221 88.4564 1.9734C85.3732 0.677533 81.972 -0.0428467 78.3927 -0.0428467C68.1084 -0.0428467 59.2661 5.89774 55.3623 14.4076C55.2393 14.7586 55.1269 15.1157 55.0188 15.479C54.9106 15.1157 54.7961 14.7586 54.6731 14.4076C50.7736 5.89774 41.9313 -0.0428467 31.6449 -0.0428467C28.0655 -0.0428467 24.6643 0.677533 21.5811 1.97544C24.0642 1.11221 26.7424 0.6408 29.5329 0.6408C41.117 0.6408 50.7672 8.75681 52.6714 19.389C49.5777 10.3853 40.7502 3.8672 30.3705 3.8672C17.4229 3.8672 6.88843 14.0056 6.88843 26.4663C6.88843 26.4786 6.88843 26.4867 6.88843 26.499C6.89267 28.5009 7.26375 30.4906 7.96775 32.3783C11.4602 41.7127 20.7436 48.3859 31.6449 48.3859C36.9482 48.3859 41.8698 46.8063 45.9262 44.1085C43.7527 45.3492 41.3396 46.2737 38.7315 46.7961C27.3912 49.0675 16.2227 43.0167 12.1048 32.9803C17.0412 41.1882 27.0647 45.8349 37.2281 43.7983C46.0534 42.029 52.6905 35.6782 55.0188 27.8642C57.3449 35.6782 63.982 42.029 72.8095 43.7983C82.9729 45.837 92.9942 41.1902 97.9306 32.9803C93.8127 43.0167 82.6442 49.0675 71.304 46.7941C68.6979 46.2717 66.2806 45.3472 64.1092 44.1064C68.1657 46.8043 73.0873 48.3838 78.3905 48.3838C89.2919 48.3838 98.5753 41.7106 102.068 32.3763C102.772 30.4906 103.143 28.5009 103.147 26.4969C103.147 26.4847 103.147 26.4765 103.147 26.4643C103.149 14.0056 92.6146 3.8672 79.6671 3.8672ZM78.1064 9.64453C86.6688 9.49351 93.6431 16.2035 93.4861 24.448C93.3356 32.2151 86.7494 38.5536 78.6789 38.6985C70.1165 38.8495 63.1402 32.1396 63.2992 23.895C63.4497 16.1259 70.0338 9.78942 78.1064 9.64453ZM46.7383 23.895C46.8953 32.1375 39.9232 38.8495 31.3565 38.6985C23.286 38.5536 16.6998 32.2151 16.5514 24.448C16.3924 16.2055 23.3666 9.49351 31.9311 9.64453C40.0016 9.78942 46.5878 16.1259 46.7383 23.895Z" fill="#021726"/>
</g>
<path d="M70.7268 17.4217C73.5259 16.1646 76.9589 16.6483 79.2702 18.8727C82.2219 21.7134 82.2219 26.3214 79.2702 29.1621C76.3185 32.0007 71.5305 32.0007 68.5788 29.1621C66.2696 26.9377 65.7671 23.6337 67.0712 20.9399C67.209 21.3522 67.4422 21.7399 67.7836 22.0664C68.9202 23.1603 70.7629 23.1603 71.8973 22.0664C73.0339 20.9726 73.0339 19.2012 71.8973 18.1074C71.5602 17.7788 71.1552 17.5523 70.7268 17.4217ZM33.6145 18.2054C34.751 19.2992 34.751 21.0726 33.6145 22.1644C32.48 23.2582 30.6373 23.2582 29.5007 22.1644C29.1615 21.8379 28.9261 21.4501 28.7883 21.0379C27.4842 23.7317 27.9867 27.0356 30.2959 29.26C33.2476 32.0987 38.0356 32.0987 40.9873 29.26C43.939 26.4193 43.939 21.8113 40.9873 18.9706C38.676 16.7462 35.243 16.2626 32.444 17.5197C32.8723 17.6523 33.2773 17.8788 33.6145 18.2054Z" fill="#021726"/>
<path d="M8.65574 66.7901H11.8195L8.34191 56.717H3.47756L0 66.7901H3.16374L3.76171 65.0636H8.05777L8.65574 66.7901ZM4.5484 62.7903L5.90126 58.8517L7.27108 62.7903H4.5484Z" fill="#021726"/>
<path d="M12.9087 66.7902H15.994V56.1865H12.9087V66.7902Z" fill="#021726"/>
<path d="M23.3318 59.231V60.0636C22.7975 59.382 21.9472 58.9882 20.6876 58.9882C18.0752 58.9882 17.051 60.7901 17.051 62.79C17.051 64.7145 18.0752 66.5613 20.6876 66.5613C21.9472 66.5613 22.7975 66.1532 23.3318 65.4716V66.7899C23.3318 67.6225 22.8441 68 21.82 68C20.783 68 20.3568 67.5919 20.2635 67.047H17.2716C17.367 68.6225 18.6414 70 21.6312 70C25.0791 70 26.4171 68.8041 26.4171 66.2287V59.231H23.3318ZM21.7903 64.4104C20.5774 64.4104 20.1363 63.9574 20.1363 62.8513C20.1363 61.7452 20.5774 61.2901 21.7903 61.2901C23.018 61.2901 23.3318 61.8513 23.3318 62.8513C23.3318 63.8512 23.018 64.4104 21.7903 64.4104Z" fill="#021726"/>
<path d="M32.2054 67.047C35.8001 67.047 36.9345 64.9859 36.9345 63.0166C36.9345 61.0473 35.8001 58.9882 32.2054 58.9882C28.6107 58.9882 27.4763 61.0473 27.4763 63.0166C27.4763 65.0022 28.6107 67.047 32.2054 67.047ZM30.6082 63.0166C30.6082 61.6697 31.0387 61.2901 32.2054 61.2901C33.3721 61.2901 33.8026 61.6697 33.8026 63.0166C33.8026 64.3655 33.3721 64.7451 32.2054 64.7451C31.0387 64.7451 30.6082 64.3655 30.6082 63.0166Z" fill="#021726"/>
<path d="M37.9673 66.7902H41.0526V56.1865H37.9673V66.7902Z" fill="#021726"/>
<path d="M42.1536 66.7902H45.2388V56.1865H42.1536V66.7902Z" fill="#021726"/>
<path d="M52.1012 59.217V62.8965C52.1012 64.0781 51.5498 64.6393 50.6211 64.6393C49.6923 64.6393 49.3785 64.0475 49.3785 63.2312V59.217H46.2932V63.776C46.2932 65.7596 47.2686 67.0331 49.3149 67.0331C50.6677 67.0331 51.5817 66.4576 52.1012 65.5025V66.7902H55.1864V59.217H52.1012Z" fill="#021726"/>
<path d="M67.3679 58.9741C65.9663 58.9741 65.116 59.5945 64.6134 60.5802C64.1872 59.5639 63.3072 58.9741 61.9989 58.9741C60.6927 58.9741 59.8594 59.5047 59.3717 60.3822V59.217H56.2864V66.7901H59.3717V63.1087C59.3717 61.9271 59.7639 61.3679 60.6927 61.3679C61.543 61.3679 61.859 61.8965 61.859 62.7148V66.7901H64.8955V63.1087C64.8955 61.9271 65.2899 61.3679 66.2186 61.3679C67.0689 61.3679 67.3828 61.8965 67.3828 62.7148V66.7901H70.4681V62.2311C70.4681 60.2455 69.4926 58.9741 67.3679 58.9741Z" fill="#021726"/>
<path d="M71.5208 58.368H74.606V56.717H71.5208V58.368ZM71.5208 66.7901H74.606V59.2169H71.5208V66.7901Z" fill="#021726"/>
<path d="M81.6104 58.9741C80.2406 58.9741 79.3267 59.5639 78.7923 60.519V59.217H75.707V66.7901H78.7923V63.1087C78.7923 61.9271 79.3436 61.3679 80.2724 61.3679C81.2012 61.3679 81.515 61.9577 81.515 62.776V66.7901H84.6003V62.2311C84.6003 60.2455 83.6545 58.9741 81.6104 58.9741Z" fill="#021726"/>
<path d="M88.0624 66.9861C89.6209 66.9861 90.643 66.4106 91.0522 65.2596C91.0522 65.8963 91.1158 66.3963 91.1943 66.7901H93.8216C93.7283 66.2004 93.6646 65.4575 93.6646 64.578V61.8067C93.6646 59.9741 92.3902 58.9741 89.7927 58.9741C87.2269 58.9741 85.7002 60.17 85.6069 61.7924H88.5819C88.5819 61.2148 88.9742 60.8985 89.8096 60.8985C90.5645 60.8985 90.8169 61.1087 90.8169 61.4883C90.8169 61.8373 90.6748 62.0026 89.9665 62.125L88.2341 62.4128C85.9377 62.7903 85.45 63.5943 85.45 64.8065C85.45 66.1228 86.5038 66.9861 88.0624 66.9861ZM89.3219 65.1086C88.8639 65.1086 88.4716 64.8821 88.4716 64.4127C88.4716 63.9576 88.707 63.7454 89.4004 63.5637L89.6358 63.5025C90.1383 63.3821 90.4394 63.3066 90.8169 63.0495V63.276C90.8169 64.578 90.1235 65.1086 89.3219 65.1086Z" fill="#021726"/>
<path d="M98.9518 66.7902H100.353V64.4413H98.621V61.4435H100.635V59.217H98.621V57.3375H97.0476L95.7732 59.3517L94.1829 60.0803V61.4435H95.5357V63.5638C95.5357 65.6535 96.386 66.7902 98.9518 66.7902Z" fill="#021726"/>
<path d="M105.689 65.078C104.822 65.078 104.319 64.7147 104.162 63.7454H109.953C109.985 63.5943 110 63.3515 110 63.0944C110 61.0047 109.071 58.9741 105.625 58.9741C102.494 58.9741 101.156 60.8067 101.156 62.9882C101.156 65.0188 102.288 67.033 105.625 67.033C108.522 67.033 109.671 65.8963 109.97 64.5025H106.947C106.726 64.8514 106.287 65.078 105.689 65.078ZM105.672 60.8822C106.601 60.8822 106.995 61.321 107.089 62.1087H104.177C104.351 61.2006 104.807 60.8822 105.672 60.8822Z" fill="#021726"/>
</svg>
